<svg width="657.9px" height="121.4px" xmlns="http://www.w3.org/2000/svg" viewBox="-78.94687499999998 14.300000000000004 657.89375 121.39999999999999" style="background: rgba(0, 0, 0, 0)" preserveAspectRatio="xMidYMid"><defs><linearGradient id="editing-gradient-gradient" x1="0" x2="1" y1="0.5" y2="0.5" gradientUnits="objectBoundingBox"><stop offset="0" stop-color="#0050ff"></stop><stop offset="1" stop-color="#f200ff"></stop></linearGradient></defs><g><g transform="matrix(1.4,0,0,1.6,-58.7,169.8)"><path d="M 0 -45.2 L -13.9 -45.2 L -5.8 -87.5 L 8.3 -87.5 L 0 -45.2 Z M 55.8 -43.9 L 55.8 -43.9 L 55.8 -43.9 Q 48 -43.9 48 -50 L 48 -50 L 48 -50 Q 48 -52.6 49.1 -57.7 L 49.1 -57.7 L 49.1 -57.7 Q 50.3 -62.8 50.6 -64.8 L 50.6 -64.8 L 50.6 -64.8 Q 51.5 -69.5 51.5 -70.9 L 51.5 -70.9 L 51.5 -70.9 Q 51.5 -74.2 49.1 -74.2 L 49.1 -74.2 L 49.1 -74.2 Q 47.5 -74.2 46 -72 L 46 -72 L 46 -72 Q 44.4 -69.8 43.7 -65.4 L 43.7 -65.4 L 39.8 -45.2 L 27.3 -43.9 L 30.7 -61.3 L 30.7 -61.3 Q 31.3 -64.2 31.8 -67.5 L 31.8 -67.5 L 31.8 -67.5 Q 32.3 -70.8 32.3 -71.3 L 32.3 -71.3 L 32.3 -71.3 Q 32.3 -74.2 30.2 -74.2 L 30.2 -74.2 L 30.2 -74.2 Q 28.7 -74.2 27.1 -72 L 27.1 -72 L 27.1 -72 Q 25.5 -69.9 24.6 -65.4 L 24.6 -65.4 L 20.7 -45.2 L 8.1 -43.9 L 14.8 -77.9 L 25.2 -79.1 L 24.1 -72.7 L 24.1 -72.7 Q 25.8 -76.1 28.9 -77.6 L 28.9 -77.6 L 28.9 -77.6 Q 32 -79.1 36.8 -79.1 L 36.8 -79.1 L 36.8 -79.1 Q 39.5 -79.1 41.3 -77.8 L 41.3 -77.8 L 41.3 -77.8 Q 43.1 -76.4 43.7 -74.3 L 43.7 -74.3 L 43.7 -74.3 Q 44.8 -76.5 47.5 -77.8 L 47.5 -77.8 L 47.5 -77.8 Q 50.3 -79.1 53.7 -79.1 L 53.7 -79.1 L 53.7 -79.1 Q 57.2 -79.1 58.9 -78.4 L 58.9 -78.4 L 58.9 -78.4 Q 60.6 -77.7 61.6 -76.4 L 61.6 -76.4 L 61.6 -76.4 Q 63.3 -74.2 63.3 -70.1 L 63.3 -70.1 L 63.3 -70.1 Q 63.3 -66.1 61.6 -57.7 L 61.6 -57.7 L 61.6 -57.7 Q 60.7 -53.6 60.7 -52.1 L 60.7 -52.1 L 60.7 -52.1 Q 60.7 -50.6 61.6 -49.7 L 61.6 -49.7 L 61.6 -49.7 Q 62.4 -48.8 63.7 -48.7 L 63.7 -48.7 L 63.7 -48.7 Q 63.1 -46.5 60.9 -45.2 L 60.9 -45.2 L 60.9 -45.2 Q 58.6 -43.9 55.8 -43.9 Z M 71.4 -47.1 L 71.4 -47.1 L 71.4 -47.1 Q 69.9 -48.8 69.2 -51.4 L 69.2 -51.4 L 69.2 -51.4 Q 68.6 -54 68.6 -58.3 L 68.6 -58.3 L 68.6 -58.3 Q 68.6 -62.6 70 -66.5 L 70 -66.5 L 70 -66.5 Q 71.5 -70.4 74.2 -73.2 L 74.2 -73.2 L 74.2 -73.2 Q 79.7 -79.1 88.8 -79.1 L 88.8 -79.1 L 88.8 -79.1 Q 92.1 -79.1 94.4 -78 L 94.4 -78 L 105.4 -79.1 L 100.6 -54.2 L 100.6 -54.2 Q 100.4 -53.4 100.4 -52 L 100.4 -52 L 100.4 -52 Q 100.4 -50.6 101.3 -49.7 L 101.3 -49.7 L 101.3 -49.7 Q 102.2 -48.8 103.4 -48.7 L 103.4 -48.7 L 103.4 -48.7 Q 102.8 -46.5 100.5 -45.2 L 100.5 -45.2 L 100.5 -45.2 Q 98.1 -43.9 95.5 -43.9 L 95.5 -43.9 L 95.5 -43.9 Q 92.9 -43.9 91.1 -44.9 L 91.1 -44.9 L 91.1 -44.9 Q 89.4 -45.9 88.9 -47.6 L 88.9 -47.6 L 88.9 -47.6 Q 87.8 -46 85.7 -45 L 85.7 -45 L 85.7 -45 Q 83.5 -43.9 80.6 -43.9 L 80.6 -43.9 L 80.6 -43.9 Q 77.7 -43.9 75.3 -44.7 L 75.3 -44.7 L 75.3 -44.7 Q 72.9 -45.5 71.4 -47.1 Z M 84.9 -73.1 L 84.9 -73.1 L 84.9 -73.1 Q 84.2 -72 83.5 -70 L 83.5 -70 L 83.5 -70 Q 82.9 -68.1 81.8 -62.8 L 81.8 -62.8 L 81.8 -62.8 Q 80.8 -57.6 80.8 -53.9 L 80.8 -53.9 L 80.8 -53.9 Q 80.8 -50.2 81.4 -49.1 L 81.4 -49.1 L 81.4 -49.1 Q 81.9 -48 83 -48 L 83 -48 L 83 -48 Q 85 -48 86.5 -50 L 86.5 -50 L 86.5 -50 Q 88 -51.9 88.6 -55.4 L 88.6 -55.4 L 92 -74.1 L 92 -74.1 Q 90.6 -75.3 89.1 -75.3 L 89.1 -75.3 L 89.1 -75.3 Q 87.5 -75.3 86.6 -74.8 L 86.6 -74.8 L 86.6 -74.8 Q 85.7 -74.3 84.9 -73.1 Z M 113.1 -72 L 113.1 -72 L 113.1 -72 Q 115.3 -75 118.6 -77.1 L 118.6 -77.1 L 118.6 -77.1 Q 121.9 -79.1 125.9 -79.1 L 125.9 -79.1 L 125.9 -79.1 Q 129.9 -79.1 131.9 -77.9 L 131.9 -77.9 L 144.4 -79.1 L 140.1 -54.6 L 140.1 -54.6 Q 137.8 -42 133.1 -37.1 L 133.1 -37.1 L 133.1 -37.1 Q 128.5 -32.4 119.7 -32.4 L 119.7 -32.4 L 119.7 -32.4 Q 113 -32.4 109.1 -34.5 L 109.1 -34.5 L 109.1 -34.5 Q 105.3 -36.6 105.3 -40.2 L 105.3 -40.2 L 105.3 -40.2 Q 105.3 -42.8 107.3 -44.3 L 107.3 -44.3 L 107.3 -44.3 Q 109.3 -45.8 112.3 -45.8 L 112.3 -45.8 L 112.3 -45.8 Q 115 -45.8 117.1 -44.6 L 117.1 -44.6 L 117.1 -44.6 Q 118.3 -43.9 118.9 -43 L 118.9 -43 L 118.9 -43 Q 117.4 -41.8 117.4 -39.6 L 117.4 -39.6 L 117.4 -39.6 Q 117.4 -36.9 120 -36.9 L 120 -36.9 L 120 -36.9 Q 124.2 -36.9 126.7 -47 L 126.7 -47 L 126.7 -47 Q 127.4 -49.8 128 -52.5 L 128 -52.5 L 128 -52.5 Q 125.1 -49 118.5 -49 L 118.5 -49 L 118.5 -49 Q 114 -49 111.4 -51.2 L 111.4 -51.2 L 111.4 -51.2 Q 108.8 -53.3 108.8 -58.5 L 108.8 -58.5 L 108.8 -58.5 Q 108.8 -61.7 109.8 -65.3 L 109.8 -65.3 L 109.8 -65.3 Q 110.9 -68.9 113.1 -72 Z M 121.4 -58.3 L 121.4 -58.3 L 121.4 -58.3 Q 121.4 -53.9 123.7 -53.9 L 123.7 -53.9 L 123.7 -53.9 Q 125.2 -53.9 126.7 -55.6 L 126.7 -55.6 L 126.7 -55.6 Q 127.8 -56.9 128.3 -58.9 L 128.3 -58.9 L 131.5 -75.4 L 131.5 -75.4 Q 131.2 -75.4 130.9 -75.6 L 130.9 -75.6 L 130.9 -75.6 Q 130.3 -75.8 129.4 -75.8 L 129.4 -75.8 L 129.4 -75.8 Q 125.5 -75.8 123.2 -69.4 L 123.2 -69.4 L 123.2 -69.4 Q 121.4 -64.4 121.4 -58.3 Z M 172.8 -56 L 172.8 -56 L 172.8 -56 Q 174.4 -54.9 174.4 -52.5 L 174.4 -52.5 L 174.4 -52.5 Q 174.4 -50.1 173.2 -48.6 L 173.2 -48.6 L 173.2 -48.6 Q 172 -47.1 170 -46 L 170 -46 L 170 -46 Q 165.9 -43.9 161.5 -43.9 L 161.5 -43.9 L 161.5 -43.9 Q 157.1 -43.9 154.5 -44.9 L 154.5 -44.9 L 154.5 -44.9 Q 151.9 -45.9 150.2 -47.6 L 150.2 -47.6 L 150.2 -47.6 Q 146.8 -51 146.8 -57.2 L 146.8 -57.2 L 146.8 -57.2 Q 146.8 -66.9 152 -72.8 L 152 -72.8 L 152 -72.8 Q 157.7 -79.1 167.4 -79.1 L 167.4 -79.1 L 167.4 -79.1 Q 173.5 -79.1 176.5 -76.6 L 176.5 -76.6 L 176.5 -76.6 Q 178.8 -74.7 178.8 -71.5 L 178.8 -71.5 L 178.8 -71.5 Q 178.8 -60.3 159.3 -60.3 L 159.3 -60.3 L 159.3 -60.3 Q 159.1 -58.6 159.1 -57.2 L 159.1 -57.2 L 159.1 -57.2 Q 159.1 -54.2 160.4 -53.1 L 160.4 -53.1 L 160.4 -53.1 Q 161.7 -52 164.1 -52 L 164.1 -52 L 164.1 -52 Q 166.5 -52 169.1 -53.1 L 169.1 -53.1 L 169.1 -53.1 Q 171.7 -54.2 172.8 -56 Z M 159.8 -63 L 159.8 -63 L 159.8 -63 Q 164.3 -63 166.9 -65.8 L 166.9 -65.8 L 166.9 -65.8 Q 169.6 -68.5 169.6 -72.8 L 169.6 -72.8 L 169.6 -72.8 Q 169.6 -74.3 169 -75.1 L 169 -75.1 L 169 -75.1 Q 168.5 -75.9 167.4 -75.9 L 167.4 -75.9 L 167.4 -75.9 Q 166.3 -75.9 165.4 -75.5 L 165.4 -75.5 L 165.4 -75.5 Q 164.4 -75 163.5 -73.6 L 163.5 -73.6 L 163.5 -73.6 Q 161.1 -70.4 159.8 -63 Z M 200.1 -67.7 L 200.1 -67.7 L 200.1 -67.7 Q 201 -70 201 -72.1 L 201 -72.1 L 201 -72.1 Q 201 -75.9 197.9 -75.9 L 197.9 -75.9 L 197.9 -75.9 Q 196.3 -75.9 195 -74.4 L 195 -74.4 L 195 -74.4 Q 193.7 -73 193.7 -71.2 L 193.7 -71.2 L 193.7 -71.2 Q 193.7 -69.9 194.7 -68.9 L 194.7 -68.9 L 194.7 -68.9 Q 196.2 -67.5 200 -65.2 L 200 -65.2 L 200 -65.2 Q 203.7 -62.9 205.2 -61 L 205.2 -61 L 205.2 -61 Q 206.6 -59.1 206.6 -56.5 L 206.6 -56.5 L 206.6 -56.5 Q 206.6 -53.9 205.4 -51.6 L 205.4 -51.6 L 205.4 -51.6 Q 204.1 -49.2 201.9 -47.5 L 201.9 -47.5 L 201.9 -47.5 Q 197.1 -43.9 189.4 -43.9 L 189.4 -43.9 L 189.4 -43.9 Q 185.2 -43.9 182 -46.1 L 182 -46.1 L 182 -46.1 Q 178.8 -48.2 178.8 -50.7 L 178.8 -50.7 L 178.8 -50.7 Q 178.8 -53.2 180.7 -54.7 L 180.7 -54.7 L 180.7 -54.7 Q 182.5 -56.2 185.2 -56.2 L 185.2 -56.2 L 185.2 -56.2 Q 187.9 -56.2 189.5 -55.1 L 189.5 -55.1 L 189.5 -55.1 Q 188.7 -53 188.7 -51.6 L 188.7 -51.6 L 188.7 -51.6 Q 188.7 -47.4 192.3 -47.4 L 192.3 -47.4 L 192.3 -47.4 Q 193.8 -47.4 194.8 -48.4 L 194.8 -48.4 L 194.8 -48.4 Q 195.9 -49.3 195.9 -51 L 195.9 -51 L 195.9 -51 Q 195.9 -54.2 190.4 -57.7 L 190.4 -57.7 L 190.4 -57.7 Q 185.9 -60.6 184.9 -61.8 L 184.9 -61.8 L 184.9 -61.8 Q 183.1 -63.8 183.1 -66.4 L 183.1 -66.4 L 183.1 -66.4 Q 183.1 -69 184.3 -71.4 L 184.3 -71.4 L 184.3 -71.4 Q 185.6 -73.8 187.8 -75.6 L 187.8 -75.6 L 187.8 -75.6 Q 192.5 -79.1 200.6 -79.1 L 200.6 -79.1 L 200.6 -79.1 Q 204.8 -79.1 207.2 -77.5 L 207.2 -77.5 L 207.2 -77.5 Q 209.7 -75.8 209.7 -73 L 209.7 -73 L 209.7 -73 Q 209.7 -70.2 208 -68.6 L 208 -68.6 L 208 -68.6 Q 206.3 -67 203.2 -67 L 203.2 -67 L 203.2 -67 Q 201.1 -67 200.1 -67.7 Z M 251.2 -65.8 L 264.1 -67 L 264.1 -67 Q 259.5 -56.9 259.5 -45.2 L 259.5 -45.2 L 259.5 -45.2 Q 257.7 -43.9 255.2 -43.9 L 255.2 -43.9 L 255.2 -43.9 Q 252.7 -43.9 251.1 -45.1 L 251.1 -45.1 L 251.1 -45.1 Q 249.5 -46.3 249.2 -47.5 L 249.2 -47.5 L 249.2 -47.5 Q 247.6 -45.9 245 -44.9 L 245 -44.9 L 245 -44.9 Q 242.4 -43.9 239.6 -43.9 L 239.6 -43.9 L 239.6 -43.9 Q 236.9 -43.9 234.5 -44.8 L 234.5 -44.8 L 234.5 -44.8 Q 232.1 -45.7 230.2 -47.7 L 230.2 -47.7 L 230.2 -47.7 Q 226.1 -52.1 226.1 -60.3 L 226.1 -60.3 L 226.1 -60.3 Q 226.1 -73.1 233 -80.8 L 233 -80.8 L 233 -80.8 Q 240 -88.7 252.5 -88.7 L 252.5 -88.7 L 252.5 -88.7 Q 261.1 -88.7 264.2 -84.3 L 264.2 -84.3 L 264.2 -84.3 Q 265.2 -82.8 265.2 -81.2 L 265.2 -81.2 L 265.2 -81.2 Q 265.2 -79.5 264.4 -78 L 264.4 -78 L 264.4 -78 Q 263.7 -76.6 262.5 -75.4 L 262.5 -75.4 L 262.5 -75.4 Q 259.8 -72.9 256.4 -72.9 L 256.4 -72.9 L 256.4 -72.9 Q 255.1 -72.9 253.8 -73.3 L 253.8 -73.3 L 253.8 -73.3 Q 254 -75.2 254 -77.5 L 254 -77.5 L 254 -77.5 Q 254 -79.7 253.9 -80.7 L 253.9 -80.7 L 253.9 -80.7 Q 253.7 -81.8 253.3 -82.6 L 253.3 -82.6 L 253.3 -82.6 Q 252.5 -84.3 250.7 -84.3 L 250.7 -84.3 L 250.7 -84.3 Q 248.9 -84.3 246.8 -82.4 L 246.8 -82.4 L 246.8 -82.4 Q 244.8 -80.4 243.2 -77.2 L 243.2 -77.2 L 243.2 -77.2 Q 239.7 -70 239.7 -61.4 L 239.7 -61.4 L 239.7 -61.4 Q 239.7 -57.4 241.2 -54.6 L 241.2 -54.6 L 241.2 -54.6 Q 242.9 -51.6 245.8 -51.6 L 245.8 -51.6 L 245.8 -51.6 Q 246.9 -51.6 247.8 -52.1 L 247.8 -52.1 L 247.8 -52.1 Q 248.7 -52.6 249.1 -53 L 249.1 -53 L 251.2 -65.8 Z M 270 -47.1 L 270 -47.1 L 270 -47.1 Q 268.5 -48.8 267.8 -51.4 L 267.8 -51.4 L 267.8 -51.4 Q 267.2 -54 267.2 -58.3 L 267.2 -58.3 L 267.2 -58.3 Q 267.2 -62.6 268.6 -66.5 L 268.6 -66.5 L 268.6 -66.5 Q 270.1 -70.4 272.8 -73.2 L 272.8 -73.2 L 272.8 -73.2 Q 278.3 -79.1 287.4 -79.1 L 287.4 -79.1 L 287.4 -79.1 Q 290.6 -79.1 293 -78 L 293 -78 L 304 -79.1 L 299.2 -54.2 L 299.2 -54.2 Q 299 -53.4 299 -52 L 299 -52 L 299 -52 Q 299 -50.6 299.9 -49.7 L 299.9 -49.7 L 299.9 -49.7 Q 300.8 -48.8 302 -48.7 L 302 -48.7 L 302 -48.7 Q 301.4 -46.5 299.1 -45.2 L 299.1 -45.2 L 299.1 -45.2 Q 296.7 -43.9 294.1 -43.9 L 294.1 -43.9 L 294.1 -43.9 Q 291.5 -43.9 289.7 -44.9 L 289.7 -44.9 L 289.7 -44.9 Q 288 -45.9 287.4 -47.6 L 287.4 -47.6 L 287.4 -47.6 Q 286.4 -46 284.2 -45 L 284.2 -45 L 284.2 -45 Q 282.1 -43.9 279.2 -43.9 L 279.2 -43.9 L 279.2 -43.9 Q 276.2 -43.9 273.9 -44.7 L 273.9 -44.7 L 273.9 -44.7 Q 271.5 -45.5 270 -47.1 Z M 283.5 -73.1 L 283.5 -73.1 L 283.5 -73.1 Q 282.8 -72 282.1 -70 L 282.1 -70 L 282.1 -70 Q 281.5 -68.1 280.4 -62.8 L 280.4 -62.8 L 280.4 -62.8 Q 279.4 -57.6 279.4 -53.9 L 279.4 -53.9 L 279.4 -53.9 Q 279.4 -50.2 280 -49.1 L 280 -49.1 L 280 -49.1 Q 280.5 -48 281.6 -48 L 281.6 -48 L 281.6 -48 Q 283.6 -48 285.1 -50 L 285.1 -50 L 285.1 -50 Q 286.6 -51.9 287.2 -55.4 L 287.2 -55.4 L 290.6 -74.1 L 290.6 -74.1 Q 289.2 -75.3 287.7 -75.3 L 287.7 -75.3 L 287.7 -75.3 Q 286.1 -75.3 285.2 -74.8 L 285.2 -74.8 L 285.2 -74.8 Q 284.2 -74.3 283.5 -73.1 Z M 322.7 -48.7 L 322.7 -48.7 L 322.7 -48.7 Q 320.7 -43.9 314.4 -43.9 L 314.4 -43.9 L 314.4 -43.9 Q 311.2 -43.9 309.1 -46.2 L 309.1 -46.2 L 309.1 -46.2 Q 307.5 -48 307.5 -50.1 L 307.5 -50.1 L 307.5 -50.1 Q 307.5 -54.9 309.7 -65.4 L 309.7 -65.4 L 314.4 -90 L 327.4 -91.3 L 321.2 -58.9 L 321.2 -58.9 Q 320.1 -54.2 320.1 -52.5 L 320.1 -52.5 L 320.1 -52.5 Q 320.1 -48.9 322.7 -48.7 Z M 343.4 -48.7 L 343.4 -48.7 L 343.4 -48.7 Q 341.5 -43.9 335.1 -43.9 L 335.1 -43.9 L 335.1 -43.9 Q 331.9 -43.9 329.9 -46.2 L 329.9 -46.2 L 329.9 -46.2 Q 328.2 -48 328.2 -50.1 L 328.2 -50.1 L 328.2 -50.1 Q 328.2 -54.9 330.5 -65.4 L 330.5 -65.4 L 335.1 -90 L 348.1 -91.3 L 341.9 -58.9 L 341.9 -58.9 Q 340.8 -54.2 340.8 -52.5 L 340.8 -52.5 L 340.8 -52.5 Q 340.8 -48.9 343.4 -48.7 Z M 374.8 -56 L 374.8 -56 L 374.8 -56 Q 376.4 -54.9 376.4 -52.5 L 376.4 -52.5 L 376.4 -52.5 Q 376.4 -50.1 375.2 -48.6 L 375.2 -48.6 L 375.2 -48.6 Q 374 -47.1 372 -46 L 372 -46 L 372 -46 Q 367.9 -43.9 363.5 -43.9 L 363.5 -43.9 L 363.5 -43.9 Q 359.1 -43.9 356.5 -44.9 L 356.5 -44.9 L 356.5 -44.9 Q 353.9 -45.9 352.1 -47.6 L 352.1 -47.6 L 352.1 -47.6 Q 348.8 -51 348.8 -57.2 L 348.8 -57.2 L 348.8 -57.2 Q 348.8 -66.9 354 -72.8 L 354 -72.8 L 354 -72.8 Q 359.6 -79.1 369.4 -79.1 L 369.4 -79.1 L 369.4 -79.1 Q 375.5 -79.1 378.5 -76.6 L 378.5 -76.6 L 378.5 -76.6 Q 380.8 -74.7 380.8 -71.5 L 380.8 -71.5 L 380.8 -71.5 Q 380.8 -60.3 361.3 -60.3 L 361.3 -60.3 L 361.3 -60.3 Q 361 -58.6 361 -57.2 L 361 -57.2 L 361 -57.2 Q 361 -54.2 362.4 -53.1 L 362.4 -53.1 L 362.4 -53.1 Q 363.7 -52 366.1 -52 L 366.1 -52 L 366.1 -52 Q 368.5 -52 371.1 -53.1 L 371.1 -53.1 L 371.1 -53.1 Q 373.7 -54.2 374.8 -56 Z M 361.7 -63 L 361.7 -63 L 361.7 -63 Q 366.3 -63 368.9 -65.8 L 368.9 -65.8 L 368.9 -65.8 Q 371.5 -68.5 371.5 -72.8 L 371.5 -72.8 L 371.5 -72.8 Q 371.5 -74.3 371 -75.1 L 371 -75.1 L 371 -75.1 Q 370.5 -75.9 369.4 -75.9 L 369.4 -75.9 L 369.4 -75.9 Q 368.3 -75.9 367.3 -75.5 L 367.3 -75.5 L 367.3 -75.5 Q 366.4 -75 365.5 -73.6 L 365.5 -73.6 L 365.5 -73.6 Q 363.1 -70.4 361.7 -63 Z M 403 -63.2 L 403 -63.2 L 403 -63.2 Q 405.3 -67.3 405.3 -71.5 L 405.3 -71.5 L 405.3 -71.5 Q 405.3 -74.2 403.3 -74.2 L 403.3 -74.2 L 403.3 -74.2 Q 401.7 -74.2 400.1 -71.6 L 400.1 -71.6 L 400.1 -71.6 Q 398.5 -69 398 -65.6 L 398 -65.6 L 394.6 -45.2 L 381.4 -43.9 L 387.9 -77.9 L 398.5 -79.1 L 397.3 -72.7 L 397.3 -72.7 Q 400.5 -79.1 407.5 -79.1 L 407.5 -79.1 L 407.5 -79.1 Q 411.2 -79.1 413.2 -77.2 L 413.2 -77.2 L 413.2 -77.2 Q 415.3 -75.3 415.3 -71.4 L 415.3 -71.4 L 415.3 -71.4 Q 415.3 -67.4 412.7 -64.9 L 412.7 -64.9 L 412.7 -64.9 Q 410.1 -62.4 405.7 -62.4 L 405.7 -62.4 L 405.7 -62.4 Q 403.7 -62.4 403 -63.2 Z M 436.6 -52.4 L 436.6 -52.4 L 436.6 -52.4 Q 433.3 -49 427.2 -49 L 427.2 -49 L 427.2 -49 Q 419.6 -49 418 -54.6 L 418 -54.6 L 418 -54.6 Q 417.5 -56.2 417.5 -58.1 L 417.5 -58.1 L 417.5 -58.1 Q 417.5 -59.9 417.9 -61.9 L 417.9 -61.9 L 420.9 -77.9 L 433.9 -79.1 L 430.4 -60.5 L 430.4 -60.5 Q 430.2 -59.7 430 -58.8 L 430 -58.8 L 430 -58.8 Q 429.8 -57.9 429.8 -57 L 429.8 -57 L 429.8 -57 Q 429.8 -56 430.2 -55.4 L 430.2 -55.4 L 430.2 -55.4 Q 430.5 -54.8 430.9 -54.4 L 430.9 -54.4 L 430.9 -54.4 Q 431.7 -53.9 433.1 -53.9 L 433.1 -53.9 L 433.1 -53.9 Q 434.5 -53.9 435.6 -55.6 L 435.6 -55.6 L 435.6 -55.6 Q 436.8 -57.2 437.4 -60.1 L 437.4 -60.1 L 440.9 -77.9 L 453.5 -79.1 L 448.7 -54 L 448.7 -54 Q 446.4 -41.7 441.5 -36.8 L 441.5 -36.8 L 441.5 -36.8 Q 439 -34.3 435.8 -33.3 L 435.8 -33.3 L 435.8 -33.3 Q 432.5 -32.4 428.4 -32.4 L 428.4 -32.4 L 428.4 -32.4 Q 421.7 -32.4 417.8 -34.5 L 417.8 -34.5 L 417.8 -34.5 Q 414 -36.6 414 -40.1 L 414 -40.1 L 414 -40.1 Q 414 -42.7 416 -44.2 L 416 -44.2 L 416 -44.2 Q 417.9 -45.7 421 -45.7 L 421 -45.7 L 421 -45.7 Q 423.7 -45.7 425.7 -44.6 L 425.7 -44.6 L 425.7 -44.6 Q 427 -43.9 427.5 -43 L 427.5 -43 L 427.5 -43 Q 426.1 -41.7 426.1 -39.6 L 426.1 -39.6 L 426.1 -39.6 Q 426.1 -36.8 428.6 -36.8 L 428.6 -36.8 L 428.6 -36.8 Q 432.9 -36.8 435.3 -46.5 L 435.3 -46.5 L 435.3 -46.5 Q 436 -49.4 436.6 -52.4 Z" fill="url(#editing-gradient-gradient)"></path></g></g><style>text {
  font-size: 64px;
  font-family: Arial Black;
  dominant-baseline: central;
  text-anchor: middle;
}</style></svg>